# Blender 3.4.1
# www.blender.org
mtllib belenMove.mtl
o Icosphere
v 0.028671 2.431598 0.550731
v 0.723607 4.552781 0.525725
v -0.276388 4.552780 0.850649
v -0.921629 2.873391 -0.815296
v -0.276388 4.552780 -0.850649
v 1.078386 2.338846 -1.280715
v 0.276388 5.447220 0.850649
v -0.723607 5.447219 0.525725
v -0.723607 5.447219 -0.525725
v 0.276388 5.447220 -0.850649
v 0.894426 5.447216 0.000000
v 0.000000 6.000000 0.000000
v 0.262869 4.474262 0.809012
v 0.850648 4.474264 0.000000
v -0.688189 4.474264 0.499997
v -0.688189 4.474264 -0.499997
v 0.262869 4.474262 -0.809012
v 0.951058 5.000000 0.309013
v 0.951058 5.000000 -0.309013
v 0.000000 5.000000 1.000000
v 0.587786 5.000000 0.809017
v -0.951058 5.000000 0.309013
v -0.587786 5.000000 0.809017
v -0.587786 5.000000 -0.809017
v -0.951058 5.000000 -0.309013
v 0.540200 4.831159 -0.787648
v -0.000000 5.000000 -1.000000
v 0.688189 5.525736 0.499997
v -0.262869 5.525738 0.809012
v -0.850648 5.525736 0.000000
v -0.262869 5.525738 -0.809012
v 0.688189 5.525736 -0.499997
v 0.162456 5.850655 0.499995
v 0.525730 5.850652 0.000000
v -0.425323 5.850654 0.309011
v -0.425323 5.850654 -0.309011
v 0.162456 5.850655 -0.499995
v -0.157713 3.876254 0.265466
v -0.166450 4.157334 0.512288
v 0.435780 4.157334 0.316609
v 0.122223 3.852252 0.272209
v 0.453992 4.171146 -0.405045
v 0.166058 3.744792 -0.128402
v -0.149649 3.824534 0.000000
v -0.538656 4.157337 0.000000
v -0.004638 3.712018 -0.159948
v -0.166450 4.157334 -0.512288
v 0.221183 3.780956 -0.066244
v -0.076534 3.757102 -0.215937
v 0.041950 1.737128 1.355849
v -0.074825 2.441393 0.881677
v 0.108402 3.914547 0.299991
v 0.242039 3.818268 -0.157062
v 0.000000 1.058251 1.763355
v -0.688189 4.474264 0.499997
v -0.688189 4.474264 -0.499997
v -0.951058 5.000000 0.309013
v -0.951058 5.000000 -0.309013
v -0.538656 4.157337 0.000000
v -0.892078 4.171592 0.205724
v -0.728301 4.359829 -0.314232
v -1.071103 4.149671 0.144597
v -0.956784 4.801203 -0.176797
v -0.634092 4.242212 -0.100545
v -0.749831 4.460096 0.286700
v -0.855630 2.814702 -1.106349
v -1.012699 4.799881 0.172284
v -0.956068 1.957430 -1.624395
v -0.749831 4.460096 -0.341391
v -0.597239 4.269589 0.004720
v 0.644457 4.678336 -0.711681
v 0.837333 4.776390 -0.417369
v 0.796538 4.507737 -0.266038
v 0.672781 4.189566 -0.344257
v 0.262869 4.474262 -0.809012
v 1.013465 3.616589 -0.869903
v 0.785812 3.426184 -0.974042
v 0.837333 4.776390 -0.417369
v 0.453992 4.171146 -0.405045
v 0.903698 3.554007 -0.990267
v 0.563387 4.180356 -0.374651
v 0.453992 4.171146 -0.405045
v 0.358431 4.322704 -0.607028
v 0.453992 4.171146 -0.405045
v 0.262869 4.474262 -0.809012
vn -0.4132 -0.6556 0.6320
vn 0.6071 -0.7946 0.0001
vn -0.4911 -0.7947 0.3568
vn -0.4911 -0.7947 -0.3568
vn -0.8860 -0.4210 -0.1943
vn 0.9050 -0.3304 0.2680
vn 0.0247 -0.3304 0.9435
vn -0.9684 0.0605 -0.2421
vn -0.5746 -0.3304 -0.7488
vn 0.3482 -0.2159 -0.9122
vn 0.8026 -0.1256 0.5831
vn -0.3066 -0.1256 0.9435
vn -0.0000 -1.0000 -0.0000
vn -0.3066 -0.1256 -0.9435
vn 0.7050 0.2679 -0.6567
vn 0.4089 0.6617 0.6284
vn -0.4713 0.6617 0.5831
vn -0.7002 0.6617 -0.2680
vn 0.0385 0.6617 -0.7488
vn 0.7240 0.6617 -0.1947
vn 0.2680 0.9435 -0.1947
vn 0.4911 0.7947 -0.3568
vn 0.4089 0.6617 -0.6284
vn -0.1024 0.9435 -0.3151
vn -0.1876 0.7947 -0.5773
vn -0.4713 0.6617 -0.5831
vn -0.3313 0.9435 -0.0000
vn -0.6071 0.7947 -0.0000
vn -0.7002 0.6617 0.2680
vn -0.1024 0.9435 0.3151
vn -0.1876 0.7947 0.5773
vn 0.0385 0.6617 0.7488
vn 0.2680 0.9435 0.1947
vn 0.4911 0.7947 0.3568
vn 0.7240 0.6617 0.1947
vn 0.8897 0.3304 -0.3151
vn 0.7314 0.1220 -0.6709
vn 0.6163 0.1856 -0.7653
vn -0.0247 0.3304 -0.9435
vn -0.3035 0.1876 -0.9342
vn -0.5346 0.3304 -0.7779
vn -0.9050 0.3304 -0.2680
vn -0.9822 0.1876 -0.0000
vn -0.9050 0.3304 0.2680
vn -0.5346 0.3304 0.7779
vn -0.3035 0.1876 0.9342
vn -0.0247 0.3304 0.9435
vn 0.5746 0.3304 0.7488
vn 0.7947 0.1876 0.5773
vn 0.8897 0.3304 0.3151
vn 0.3839 0.0702 -0.9207
vn 0.3091 -0.1844 -0.9330
vn 0.0247 -0.3304 -0.9435
vn -0.8026 0.1256 -0.5831
vn -0.7947 -0.1876 -0.5773
vn -0.9684 -0.0605 0.2421
vn -0.8026 0.1256 0.5831
vn -0.7947 -0.1876 0.5773
vn -0.5746 -0.3304 0.7488
vn 0.3066 0.1256 0.9435
vn 0.3035 -0.1876 0.9342
vn 0.5346 -0.3304 0.7779
vn 0.9921 0.1256 -0.0000
vn 0.9822 -0.1876 -0.0000
vn 0.9539 -0.1138 0.2778
vn 0.1264 -0.7638 -0.6329
vn -0.9438 -0.2125 -0.2532
vn -0.0372 -0.6556 -0.7542
vn -0.2279 -0.3419 0.9117
vn -0.4132 -0.6556 -0.6320
vn -0.0372 -0.6556 0.7542
vn 0.4734 -0.6556 0.5882
vn 0.2465 -0.4654 -0.8501
vn 0.4439 -0.4658 0.7655
vn 0.7057 -0.6556 0.2685
vn 0.1876 -0.7947 0.5773
vn -0.1786 0.4540 0.8729
vn 0.9606 0.0970 0.2604
vn 0.1858 -0.5952 -0.7818
vn -0.7009 -0.6084 -0.3723
vn -0.7046 -0.6054 0.3702
vn 0.7606 -0.6334 0.1423
vn 0.1775 -0.5262 0.8316
vn -0.9977 -0.0652 -0.0176
vn 0.2537 -0.5678 -0.7831
vn 0.8503 -0.3371 -0.4041
vn -0.8361 -0.3229 -0.4435
vn -0.7517 -0.6467 0.1292
vn -0.9843 0.1669 -0.0567
vn -0.8131 -0.3231 0.4842
vn -0.7322 -0.6669 -0.1385
vn -0.8601 -0.2956 -0.4157
vn -0.1902 -0.6042 0.7738
vn -0.9843 0.0799 -0.1574
vn 0.0389 0.4533 -0.8905
vn 0.5294 -0.5420 0.6527
vn 0.9299 0.1042 -0.3527
vn 0.7814 -0.4108 0.4697
vn -0.9991 -0.0382 -0.0177
vn -0.3844 -0.0247 0.9229
vn -0.3124 0.1694 -0.9347
vt 0.949241 0.442671
vt 0.901994 0.650483
vt 0.354395 0.400065
vt 0.631667 0.450360
vt 0.350910 0.417816
vt 0.893938 0.847117
vt 0.939954 0.559942
vt 0.909427 0.509908
vt 0.541364 0.423733
vt 0.871523 0.604309
vt 0.945027 0.499999
vt 0.935439 0.476480
vt 0.896029 0.630461
vt 0.839000 0.603848
vt 0.395152 0.569359
vt 0.345000 0.510187
vt 0.627424 0.566400
vt 0.632273 0.581193
vt 0.450455 0.581193
vt 0.355304 0.560483
vt 0.388637 0.495394
vt 0.611970 0.631489
vt 0.397879 0.685400
vt 0.541364 0.738654
vt 0.628182 0.626228
vt 0.402577 0.635104
vt 0.376061 0.617352
vt 0.395152 0.411899
vt 0.621970 0.491781
vt 0.858697 0.509024
vt 0.839535 0.560438
vt 0.401970 0.334976
vt 0.610758 0.447402
vt 0.632273 0.423733
vt 0.978266 0.559930
vt 0.450455 0.423733
vt 0.381516 0.428499
vt 0.603182 0.558676
vt 0.921356 0.634662
vt 0.314091 0.502463
vt 0.640758 0.549801
vt 0.831652 0.672074
vt 0.349698 0.490629
vt 0.402273 0.478795
vt 0.626970 0.434416
vt 0.640303 0.505422
vt 0.353788 0.443292
vt 0.621212 0.529090
vt 0.586819 0.502463
vt 0.617728 0.416664
vt 0.596061 0.520215
vt 0.934421 0.619751
vt 0.405000 0.502463
vt 0.427728 0.463098
vt 0.495909 0.502463
vt 0.372728 0.495394
vt 0.340909 0.557525
vt 0.586515 0.566400
vt 0.663182 0.495394
vt 0.594849 0.584152
vt 0.541364 0.581193
vt 0.359546 0.581193
vt 0.378031 0.624421
vt 0.410607 0.630338
vt 0.364091 0.624421
vt 0.381516 0.585959
vt 0.626970 0.591876
vt 0.598636 0.624421
vt 0.353788 0.600752
vt 0.624394 0.600752
vt 0.586819 0.659924
vt 0.617728 0.574125
vt 0.405000 0.659924
vt 0.495909 0.659924
vt 0.867027 0.504176
vt 0.619885 0.369332
vt 0.369358 0.381166
vt 0.929885 0.620811
vt 0.621519 0.373695
vt 0.367513 0.384373
vt 0.620896 0.374075
vt 0.367528 0.385764
vt 0.413940 0.320495
vt 0.398584 0.323498
vt 0.597803 0.426747
vt 0.416274 0.319075
vt 0.884262 0.543076
vt 0.954811 0.440361
vt 0.882726 0.474825
vt 0.403883 0.346938
vt 0.638010 0.417653
vt 0.878350 0.691436
vt 0.897249 0.524627
vt 0.846991 0.781790
vt 0.610756 0.412760
vt 0.622239 0.346354
vt 0.960572 0.693987
vt 0.612178 0.417944
vt 0.623379 0.349824
vt 0.925639 0.691436
vt 0.497243 0.347063
vt 0.585485 0.347063
vt 0.497027 0.346938
vt 0.587340 0.345193
vt 0.914458 0.609490
vt 0.832905 0.716585
vt 0.494583 0.342704
vt 0.587221 0.343827
vt 0.946054 0.693097
vt 0.931463 0.469529
vt 0.899662 0.640179
vt 0.983165 0.593295
vt 0.939009 0.487952
vt 0.598488 0.422327
vt 0.415545 0.317977
vt 0.853795 0.574962
vt 0.406327 0.342704
vt 0.636584 0.413710
vt 0.857799 0.693097
vt 0.867773 0.510445
vt 0.923639 0.647359
vt 0.891438 0.621578
vt 0.911154 0.427744
vt 0.954924 0.492604
vt 0.915576 0.356666
vt 0.901927 0.616664
vt 0.952574 0.398332
vt 0.610758 0.447402
vt 0.632273 0.423733
vt 0.626970 0.434416
vt 0.640303 0.505422
vt 0.617728 0.416664
vt 0.596061 0.520215
vt 0.623379 0.349824
vt 0.612178 0.417944
vt 0.851413 0.858010
vt 0.872533 0.687210
vt 0.870061 0.868707
vt 0.853771 0.716912
vt 0.872937 0.950203
vt 0.870846 0.575740
vt 0.904180 0.927811
vt 0.617728 0.416664
vt 0.596061 0.520215
vt 0.835227 0.509860
vt 0.951894 0.819031
vt 0.891006 0.567252
vt 0.610758 0.447402
vt 0.840269 0.686921
vt 0.845255 0.648643
vt 0.841591 0.920775
vt 0.957957 0.456570
vt 0.626970 0.434416
vt 0.640303 0.505422
vt 0.848636 0.577907
vt 0.836136 0.523173
vt 0.876136 0.990629
vt 0.917349 0.371958
vt 0.827349 0.947402
vt 0.962541 0.461305
vt 0.875896 0.595154
vt 0.883182 0.435567
vt 0.830119 0.621432
vt 0.632273 0.423733
vt 0.934773 0.737343
vt 0.836720 0.680694
vt 0.623379 0.349824
vt 0.612178 0.417944
vt 0.832837 0.557725
vt 0.860758 0.626323
vt 0.995311 0.730049
vt 0.405000 0.423733
vt 0.949975 0.595509
vt 0.884216 0.661998
vt 0.887405 0.552207
vt 0.897712 0.650460
vt 0.885818 0.467604
vt 0.843640 0.634195
vt 0.891084 0.564495
vt 0.985183 0.510496
vt 0.949036 0.560703
vt 0.928242 0.590837
vt 0.925084 0.644250
vt 0.915964 0.466476
vt 0.988299 0.598275
vt 0.824569 0.699848
vt 0.921281 0.506866
vt 0.933955 0.492661
vt 0.947371 0.530471
vt 0.427169 0.385336
s 0
usemtl Material
f 39/79/1 3/4/1 15/33/1
f 14/29/2 40/85/2 42/91/2
f 45/99/3 39/81/3 15/33/3
f 47/104/4 45/98/4 16/34/4
f 42/88/5 83/189/5 17/35/5 71/171/5 77/183/5 6/10/5 74/179/5 81/187/5
f 2/3/6 14/32/6 18/37/6
f 3/5/7 13/28/7 20/43/7
f 45/99/8 15/33/8 55/128/8 59/134/8
f 5/9/9 16/34/9 24/49/9
f 71/172/10 17/36/10 26/53/10
f 2/3/11 18/37/11 21/44/11
f 3/5/12 20/43/12 23/47/12
f 22/45/13 25/50/13 58/132/13 57/130/13
f 5/9/14 24/49/14 27/55/14
f 6/11/15 80/185/15 71/173/15 26/52/15 19/39/15 72/175/15 76/181/15
f 7/15/16 28/56/16 33/64/16
f 8/16/17 29/57/17 35/69/17
f 9/18/18 30/58/18 36/70/18
f 10/19/19 31/61/19 37/74/19
f 11/20/20 32/62/20 34/65/20
f 34/65/21 37/73/21 12/23/21
f 34/65/22 32/62/22 37/73/22
f 32/62/23 10/19/23 37/73/23
f 37/74/24 36/71/24 12/24/24
f 37/74/25 31/61/25 36/71/25
f 31/61/26 9/18/26 36/71/26
f 36/72/27 35/67/27 12/25/27
f 36/72/28 30/59/28 35/67/28
f 30/60/29 8/17/29 35/68/29
f 35/69/30 33/63/30 12/26/30
f 35/69/31 29/57/31 33/63/31
f 29/57/32 7/15/32 33/63/32
f 33/64/33 34/66/33 12/27/33
f 33/64/34 28/56/34 34/66/34
f 28/56/35 11/21/35 34/66/35
f 19/40/36 32/62/36 11/20/36
f 19/40/37 26/53/37 32/62/37
f 26/53/38 10/19/38 32/62/38
f 27/55/39 31/61/39 10/19/39
f 27/55/40 24/49/40 31/61/40
f 24/49/41 9/18/41 31/61/41
f 25/51/42 30/58/42 9/18/42
f 25/50/43 22/45/43 30/59/43
f 22/46/44 8/17/44 30/60/44
f 23/47/45 29/57/45 8/16/45
f 23/47/46 20/43/46 29/57/46
f 20/43/47 7/15/47 29/57/47
f 21/44/48 28/56/48 7/15/48
f 21/44/49 18/37/49 28/56/49
f 18/37/50 11/21/50 28/56/50
f 26/53/51 27/55/51 10/19/51
f 26/54/52 17/36/52 27/55/52
f 17/36/53 5/9/53 27/55/53
f 24/49/54 25/51/54 9/18/54
f 24/49/55 16/34/55 25/51/55
f 16/34/56 45/98/56 59/135/56 56/129/56
f 22/46/57 23/48/57 8/17/57
f 22/46/58 15/33/58 23/48/58
f 15/33/59 3/4/59 23/48/59
f 20/43/60 21/44/60 7/15/60
f 20/43/61 13/28/61 21/44/61
f 13/28/62 2/3/62 21/44/62
f 18/38/63 19/41/63 11/22/63
f 18/38/64 14/29/64 19/41/64
f 14/30/65 73/177/65 6/12/65 76/182/65 72/176/65 19/42/65
f 42/90/66 47/103/66 17/36/66 83/190/66
f 54/122/67 51/111/67 44/94/67 49/106/67
f 47/101/68 5/9/68 17/36/68
f 25/51/69 16/34/69 56/129/69 58/133/69
f 47/102/70 16/34/70 5/9/70
f 15/33/13 22/46/13 57/131/13 55/128/13
f 39/80/71 13/28/71 3/5/71
f 40/83/72 2/3/72 13/28/72
f 1/2/73 46/100/73 43/92/73
f 14/31/74 42/89/74 81/188/74 74/180/74 6/13/74 73/178/74
f 2/3/75 40/84/75 14/32/75
f 39/82/76 40/86/76 13/28/76
f 54/123/77 52/113/77 38/75/77
f 41/87/78 50/110/78 48/105/78
f 53/117/79 49/107/79 47/103/79 42/90/79
f 49/108/80 44/95/80 45/98/80 47/104/80
f 44/96/81 38/76/81 39/81/81 45/99/81
f 42/91/82 40/85/82 52/114/82 53/118/82
f 38/77/83 52/115/83 40/86/83 39/82/83
f 54/124/84 38/78/84 44/97/84 51/112/84
f 43/92/85 46/100/85 49/109/85 53/119/85
f 1/1/86 43/93/86 53/120/86 54/125/86
f 46/100/87 1/2/87 54/126/87 49/109/87
f 41/87/78 48/105/78 53/121/78 52/116/78
f 50/110/78 41/87/78 52/116/78 54/127/78
f 48/105/78 50/110/78 54/127/78 53/121/78
f 59/134/88 55/128/88 65/148/88 70/167/88
f 57/130/89 58/132/89 63/143/89 67/153/89
f 55/128/90 57/131/90 67/154/90 65/148/90
f 56/129/91 59/135/91 70/168/91 69/164/91
f 58/133/92 56/129/92 69/164/92 63/144/92
f 4/6/93 60/136/93 62/140/93
f 68/158/94 67/155/94 63/145/94
f 69/165/95 68/159/95 63/146/95
f 70/169/96 65/149/96 68/160/96
f 64/147/97 66/152/97 61/139/97
f 60/137/98 4/7/98 68/161/98 65/150/98
f 4/8/99 62/141/99 67/156/99 68/162/99
f 62/142/100 60/138/100 65/151/100 67/157/100
f 61/139/97 66/152/97 68/163/97 69/166/97
f 64/147/97 61/139/97 69/166/97 70/170/97
f 66/152/97 64/147/97 70/170/97 68/163/97
f 6/14/101 77/184/101 71/174/101 80/186/101
l 78 71
l 82 79
l 26 42
l 72 78
l 80 76
l 84 82
l 73 74
l 78 73
l 17 85
l 42 84
l 85 75
